<svg width="88" height="29" viewBox="0 0 88 29" fill="none" xmlns="http://www.w3.org/2000/svg">
<path d="M45.4401 7.00013C45.0898 6.13754 44.5943 5.40263 43.954 4.79607C43.313 4.18952 42.5304 3.71749 41.6068 3.38135C40.6825 3.04522 39.6461 2.87646 38.4989 2.87646H31.4121V16.8689H38.4989C39.6461 16.8689 40.6825 16.7046 41.6068 16.376C42.5304 16.0467 43.313 15.5792 43.954 14.9719C44.5943 14.3654 45.0901 13.6311 45.4401 12.7679C45.7904 11.906 45.9663 10.941 45.9663 9.8727C45.9663 8.80439 45.7904 7.86273 45.4401 7.00013ZM42.6124 11.8683C42.3884 12.4249 42.0757 12.8887 41.6738 13.2611C41.2711 13.6339 40.7938 13.9081 40.2425 14.0833C39.6912 14.2589 39.0875 14.3469 38.4319 14.3469H34.4073V5.39818H38.4319C39.0875 5.39818 39.6912 5.48991 40.2425 5.67236C40.7938 5.85549 41.2711 6.12933 41.6738 6.49456C42.0757 6.86048 42.3887 7.32497 42.6124 7.88737C42.8364 8.45045 42.9474 9.11245 42.9474 9.87201C42.9474 10.6316 42.8361 11.3127 42.6124 11.8676V11.8683Z" fill="#00006A"/>
<path d="M55.4663 2.87646H51.6654L46.3223 16.8689H49.4522L50.7488 13.4258H56.4056L57.6796 16.8689H60.8325L55.4663 2.87646ZM51.5314 11.233L53.5657 5.79387L55.6 11.233H51.5311H51.5314Z" fill="#00006A"/>
<path d="M69.8208 2.87646L66.0869 9.1929L62.3091 2.87646H58.9102L64.4773 12.0665V16.8689H67.4505V12.1103L73.1297 2.87646H69.8208Z" fill="#00006A"/>
<path d="M85.47 5.39886V2.87646H74.7383V16.8689H77.7342V10.904H84.486V8.55725H77.7342V5.39852H85.4696L85.47 5.39886Z" fill="#00006A"/>
<path d="M36.3784 23.2748C36.3229 23.1142 36.2382 22.9759 36.1248 22.8589C36.0113 22.7415 35.8683 22.6473 35.697 22.5758C35.5249 22.5049 35.3254 22.4632 35.0985 22.4519C35.3194 22.4406 35.5012 22.392 35.6446 22.3061C35.787 22.2201 35.8983 22.1216 35.9765 22.0103C36.055 21.8991 36.1073 21.7817 36.1335 21.6591C36.16 21.5359 36.1729 21.4291 36.1729 21.3374C36.1729 21.0519 36.115 20.8123 35.9984 20.6182C35.8819 20.4241 35.7291 20.2694 35.5392 20.1551C35.3505 20.0407 35.1373 19.9593 34.9021 19.9107C34.6662 19.862 34.4255 19.8374 34.1812 19.8374H31.4121V25.3056H34.408C34.6645 25.3056 34.9168 25.2823 35.1641 25.2368C35.4115 25.1913 35.6317 25.1129 35.8236 25.0017C36.0162 24.8897 36.1701 24.7374 36.2867 24.543C36.4032 24.3489 36.4618 24.1 36.4618 23.7968C36.4618 23.6085 36.4335 23.4346 36.3788 23.2748H36.3784ZM32.5821 20.8236H34.1202C34.2482 20.8236 34.3675 20.8318 34.4782 20.8489C34.5884 20.866 34.6854 20.8975 34.7667 20.9437C34.848 20.9892 34.9122 21.0536 34.9586 21.1364C35.005 21.2193 35.0288 21.3261 35.0288 21.4575C35.0288 21.5889 35.0082 21.6889 34.9677 21.7748C34.9265 21.86 34.8697 21.9285 34.7971 21.9802C34.7241 22.0319 34.6355 22.0675 34.5305 22.087C34.4255 22.1072 34.3121 22.1174 34.1892 22.1174H32.5821V20.8232V20.8236ZM35.2165 24.0203C35.1547 24.1062 35.0717 24.1719 34.9674 24.2174C34.8623 24.263 34.7458 24.2914 34.6177 24.3027C34.489 24.3147 34.3581 24.3198 34.2241 24.3198H32.5817V22.9746H34.1889C34.3229 22.9746 34.4569 22.9828 34.5909 22.9999C34.7248 23.017 34.8459 23.0499 34.9541 23.0985C35.0616 23.1471 35.1474 23.2159 35.2113 23.3045C35.2751 23.3925 35.3072 23.5144 35.3072 23.6684C35.3072 23.8224 35.2769 23.9344 35.2158 24.0203H35.2165Z" fill="#00006A"/>
<path d="M45.2414 21.4183C45.0784 21.0732 44.8582 20.7758 44.5819 20.5273C44.3055 20.2784 43.9821 20.0874 43.6118 19.9529C43.242 19.819 42.8473 19.752 42.4286 19.752C42.0099 19.752 41.6132 19.8201 41.2402 19.9573C40.8672 20.0949 40.5413 20.2859 40.2618 20.5317C39.9823 20.7775 39.7607 21.0732 39.5978 21.4183C39.4348 21.764 39.3535 22.1487 39.3535 22.5715C39.3535 22.9942 39.4348 23.3783 39.5978 23.724C39.7607 24.0697 39.9823 24.3654 40.2618 24.6112C40.5413 24.857 40.8672 25.048 41.2402 25.1849C41.6132 25.3225 42.0092 25.391 42.4286 25.391C42.848 25.391 43.2416 25.3239 43.6118 25.1894C43.9817 25.0548 44.3069 24.8638 44.5864 24.615C44.8659 24.3672 45.0857 24.0697 45.2459 23.724C45.4057 23.3783 45.4866 22.9942 45.4866 22.5715C45.4866 22.1487 45.4043 21.764 45.2414 21.4183ZM44.1625 23.2999C44.0665 23.5224 43.9357 23.7151 43.7696 23.878C43.6035 24.041 43.4056 24.1686 43.1757 24.2597C42.945 24.3514 42.6959 24.3969 42.4286 24.3969C42.1613 24.3969 41.9101 24.3514 41.677 24.2597C41.444 24.1686 41.243 24.041 41.0741 23.878C40.9052 23.7151 40.7726 23.5224 40.6767 23.2999C40.5807 23.0774 40.5329 22.8347 40.5329 22.5718C40.5329 22.3089 40.5807 22.0662 40.6767 21.8427C40.7726 21.6202 40.9052 21.4258 41.0741 21.2601C41.243 21.0944 41.444 20.9657 41.677 20.8747C41.9101 20.7836 42.1607 20.7371 42.4286 20.7371C42.6966 20.7371 42.9447 20.7833 43.1757 20.8747C43.4056 20.9657 43.6052 21.0944 43.7741 21.2601C43.9423 21.4258 44.0742 21.6216 44.167 21.8472C44.2598 22.0727 44.3069 22.3141 44.3069 22.5718C44.3069 22.8296 44.2581 23.0774 44.1621 23.2999H44.1625Z" fill="#00006A"/>
<path d="M54.2753 21.4183C54.1116 21.0732 53.8914 20.7758 53.6151 20.5273C53.3387 20.2784 53.0153 20.0874 52.6458 19.9529C52.2759 19.819 51.8812 19.752 51.4618 19.752C51.0424 19.752 50.6464 19.8201 50.2734 19.9573C49.9011 20.0949 49.5745 20.2859 49.295 20.5317C49.0155 20.7775 48.7939 21.0732 48.631 21.4183C48.468 21.764 48.3867 22.1487 48.3867 22.5715C48.3867 22.9942 48.468 23.3783 48.631 23.724C48.7939 24.0697 49.0155 24.3654 49.295 24.6112C49.5745 24.857 49.9011 25.048 50.2734 25.1849C50.6464 25.3225 51.0424 25.391 51.4618 25.391C51.8812 25.391 52.2759 25.3239 52.6458 25.1894C53.0149 25.0548 53.3401 24.8638 53.6196 24.615C53.8991 24.3672 54.1189 24.0697 54.2791 23.724C54.4396 23.3783 54.5198 22.9942 54.5198 22.5715C54.5198 22.1487 54.4385 21.764 54.2756 21.4183H54.2753ZM53.1957 23.2999C53.0997 23.5224 52.9689 23.7151 52.8028 23.878C52.6367 24.041 52.4388 24.1686 52.2089 24.2597C51.9789 24.3514 51.7302 24.3969 51.4618 24.3969C51.1935 24.3969 50.9433 24.3514 50.7102 24.2597C50.4772 24.1686 50.2762 24.041 50.1073 23.878C49.9384 23.7151 49.8058 23.5224 49.7099 23.2999C49.6139 23.0774 49.5661 22.8347 49.5661 22.5718C49.5661 22.3089 49.6139 22.0662 49.7099 21.8427C49.8058 21.6202 49.9384 21.4258 50.1073 21.2601C50.2762 21.0944 50.4772 20.9657 50.7102 20.8747C50.9433 20.7836 51.1939 20.7371 51.4618 20.7371C51.7298 20.7371 51.9789 20.7833 52.2089 20.8747C52.4388 20.9657 52.6384 21.0944 52.8073 21.2601C52.9762 21.4258 53.1074 21.6216 53.2002 21.8472C53.293 22.0727 53.3405 22.3141 53.3405 22.5718C53.3405 22.8296 53.2927 23.0774 53.1957 23.2999Z" fill="#00006A"/>
<path d="M60.5478 22.2886L63.0811 19.8374H61.5964L58.9581 22.3827V19.8463L57.7871 19.8374V25.3056H58.9581V23.8231L59.7181 23.0858L61.6138 25.3056H63.0985L60.5478 22.2889V22.2886Z" fill="#00006A"/>
<path d="M66.1816 19.8374V25.3056H67.352V19.8374H66.1816Z" fill="#00006A"/>
<path d="M74.9533 19.8374V23.4538L72.1224 19.8374H70.9863V25.3056H72.1573V21.6974L74.9882 25.3056H76.1233V19.8374H74.953H74.9533Z" fill="#00006A"/>
<path d="M81.6889 22.2541V23.0681H84.4412L84.4147 23.42C84.3568 23.5627 84.2678 23.6924 84.1481 23.8098C84.0285 23.9273 83.8861 24.0272 83.7204 24.1094C83.5543 24.1922 83.3693 24.2565 83.1652 24.3021C82.9611 24.3483 82.7433 24.3709 82.5103 24.3709C82.2074 24.3709 81.9363 24.3253 81.698 24.2343C81.4589 24.1426 81.2548 24.0139 81.0859 23.8482C80.9171 23.6832 80.7859 23.4881 80.693 23.2656C80.6002 23.0431 80.5507 22.8055 80.5447 22.5546C80.5447 22.2918 80.588 22.0521 80.6756 21.8348C80.7632 21.6174 80.8895 21.4309 81.0556 21.2731C81.2217 21.1163 81.4227 20.9938 81.6585 20.9048C81.8944 20.8158 82.161 20.772 82.4579 20.772C82.6795 20.772 82.8903 20.7908 83.0912 20.8281C83.2922 20.8647 83.4744 20.9236 83.637 21.0037C83.7999 21.0838 83.9398 21.1851 84.0564 21.3076C84.1729 21.4309 84.2626 21.5781 84.3268 21.7492L85.4102 21.6037C85.3575 21.2953 85.2518 21.027 85.0913 20.798C84.9315 20.57 84.726 20.3766 84.4754 20.2198C84.2249 20.0631 83.937 19.9456 83.6104 19.8686C83.2845 19.7909 82.9321 19.7529 82.5535 19.7529C82.0762 19.7529 81.6421 19.8255 81.2517 19.971C80.8619 20.1165 80.5297 20.3167 80.2558 20.5707C79.9826 20.8254 79.7701 21.1228 79.6187 21.4624C79.4673 21.8023 79.388 22.1668 79.3828 22.555C79.388 22.9829 79.4673 23.3721 79.6187 23.7202C79.7701 24.069 79.984 24.3678 80.2604 24.6156C80.5367 24.8645 80.8703 25.0555 81.2608 25.19C81.6505 25.3245 82.0846 25.3916 82.5626 25.3916C83.0406 25.3916 83.4154 25.3088 83.7245 25.1428C84.033 24.9771 84.272 24.7655 84.4409 24.5085V25.3053H85.4716V22.2541H81.6882H81.6889Z" fill="#00006A"/>
<path d="M8.67207 18.9454L12.6115 25.5219C12.6527 25.5907 12.6021 25.6777 12.5204 25.6777H3.34252C2.88368 25.6777 2.51172 25.3128 2.51172 24.8627V15.4111L8.35594 18.6407C8.48679 18.7129 8.59565 18.818 8.67172 18.945L8.67207 18.9454Z" fill="#FE055B"/>
<path d="M8.35594 9.62701L2.51172 12.8566V3.40437C2.51172 2.95425 2.88368 2.58936 3.34252 2.58936H12.5204C12.6021 2.58936 12.6527 2.6763 12.6115 2.7451L8.67207 9.32271C8.596 9.4497 8.48714 9.55478 8.35629 9.62701H8.35594Z" fill="#531C92"/>
<path d="M25.6589 9.39336C26.2364 10.8173 26.526 12.397 26.526 14.1345L18.3694 9.6275C18.2386 9.55527 18.1297 9.45019 18.0537 9.32319L14.1142 2.74559C14.0731 2.67679 14.1237 2.58984 14.2053 2.58984C16.0993 2.58984 17.8077 2.86813 19.3328 3.42231C20.857 3.97752 22.149 4.75591 23.2066 5.75713C24.2632 6.75835 25.0811 7.97043 25.6593 9.39336H25.6589Z" fill="#FE055B"/>
<path d="M26.5264 14.1341C26.5264 15.8956 26.2367 17.4873 25.6593 18.9112C25.0807 20.3342 24.2629 21.5473 23.2066 22.5475C22.149 23.5497 20.8573 24.3209 19.3328 24.8642C17.8077 25.4064 16.099 25.6775 14.2053 25.6775C14.1237 25.6775 14.0731 25.5905 14.1142 25.5217L18.0537 18.9451C18.1297 18.8181 18.2386 18.7131 18.3694 18.6408L26.526 14.1338L26.5264 14.1341Z" fill="#531C92"/>
<path d="M13.6168 8.22184L14.9438 10.4365H11.7832L13.1088 8.22184C13.2222 8.03152 13.5031 8.03152 13.6165 8.22184H13.6168Z" fill="#0EB1FD"/>
<path d="M11.9705 17.8309C11.9698 17.8278 11.9691 17.8241 11.9681 17.8213C12.1485 17.7645 12.3289 17.7077 12.5093 17.6519C13.1328 17.4568 13.7556 17.262 14.3799 17.0686C14.4249 17.0546 14.4392 17.0351 14.4392 16.9878C14.4385 15.173 14.4385 13.3577 14.4399 11.5429C14.4399 11.4912 14.4245 11.4689 14.3753 11.4501C13.5044 11.1246 12.6349 10.7967 11.7646 10.4694C11.7639 10.4694 11.7632 10.4688 11.7622 10.4688L10.9932 11.7534C10.9666 11.7976 10.9286 11.8342 10.8836 11.8588L7.22053 13.8821C7.02024 13.9927 7.02024 14.2758 7.22053 14.3864L10.8836 16.4097C10.9286 16.435 10.9666 16.4716 10.9932 16.5151L13.1077 20.0456C13.2211 20.2359 13.502 20.2359 13.6154 20.0456L14.9423 17.8309H11.9698H11.9705ZM13.5571 13.8469C13.7225 13.8455 13.854 13.9732 13.854 14.1344C13.8547 14.2936 13.7253 14.422 13.5648 14.4233C13.3994 14.4257 13.2678 14.297 13.2671 14.1358C13.2671 13.9759 13.3952 13.8483 13.5571 13.8469Z" fill="#0EB1FD"/>
<path d="M19.503 14.3863L15.8406 16.4097C15.7956 16.435 15.7576 16.4716 15.7318 16.5151L15.0137 17.7131V10.5557L15.7318 11.7537C15.7576 11.7979 15.7956 11.8345 15.8413 11.8591L19.5026 13.8825C19.7029 13.993 19.7029 14.2761 19.5026 14.3867L19.503 14.3863Z" fill="#0EB1FD"/>
<path d="M11.7113 10.4365H11.7835L11.7636 10.4687C11.7455 10.4612 11.727 10.4523 11.7109 10.4365H11.7113Z" fill="white"/>
<path d="M15.0142 10.4365V10.5553L14.9434 10.4365H15.0142Z" fill="white"/>
<path d="M14.9434 17.831L15.0142 17.7129V17.831H14.9434Z" fill="white"/>
</svg>
